<?xml version="1.0" encoding="UTF-8"?>
<svg width="1024px" height="1024px" viewBox="0 0 1024 1024" version="1.1" xmlns="http://www.w3.org/2000/svg" xmlns:xlink="http://www.w3.org/1999/xlink">
    <title>媒体icon/Multimedia_M/collection_2</title>
    <g id="媒体icon/Multimedia_M/collection_2" stroke="none" stroke-width="1" fill="none" fill-rule="evenodd">
        <path d="M527.669425,69.1236123 C529.181389,70.0883609 530.693369,71.3287485 532.067881,72.5691395 C579.213645,107.300089 620.723945,158.569583 658.385576,228.444951 C711.166843,204.601879 769.308709,192.473606 831.71156,192.473606 L841.470521,192.611435 C854.116032,192.887078 865.387031,200.605069 870.335275,212.319873 C915.694174,321.060815 899.887327,472.801992 831.161722,589.950036 C771.920253,690.697353 680.10284,753.681672 572.066191,767.601617 C569.042265,768.566365 565.880895,769.117616 562.582066,769.117616 L543.613,769.117 L543.613816,927.887674 C543.613816,945.666611 529.318874,960 511.725119,960 C494.131363,960 479.836442,945.666663 479.836442,928.025545 L479.836,769.117 L461.280529,769.117616 C458.119151,769.117616 454.957769,768.704153 451.933842,767.739404 C343.897193,753.81946 251.942327,690.973002 192.838306,590.087866 C124.112701,472.939822 108.305812,321.198623 153.664712,212.457682 C158.612955,200.742877 169.88396,193.024886 182.529471,192.749244 L192.15105,192.611435 C253.041935,192.611435 309.809273,204.188406 361.628381,226.92891 C399.015111,158.431759 441.625028,106.47316 488.770792,72.0178538 C491.244913,69.8127142 494.131364,68.0210414 497.292742,66.6428292 C507.189228,62.3703713 518.597646,63.3351209 527.669425,69.1236123 Z M428.429698,878.685483 C440.250503,891.91632 439.013429,912.17602 425.818112,923.890825 C419.90771,929.403673 412.210472,932.160098 404.650655,932.160098 C395.853778,932.160098 387.056867,928.576763 380.734111,921.41006 C298.407709,829.03814 165.966984,827.168844 160.525658,827.140695 L160.262366,827.140315 C142.668611,827.140315 128.373681,812.944765 128.23623,795.303647 C128.098779,777.66253 142.256256,763.191355 159.850011,763.053533 C166.447669,762.64007 325.203841,762.915662 428.429698,878.685483 Z M863.875135,763.053533 C881.606341,763.191355 895.763816,777.662581 895.488913,795.441519 C895.351462,813.082636 881.056521,827.140315 863.600216,827.140315 L863.325381,827.140315 C860.713808,827.140315 729.035479,827.967334 642.303768,921.823591 C636.118464,928.57683 627.459037,932.02231 618.937062,932.02231 C611.102344,932.02231 603.40505,929.265954 597.219746,923.477462 C584.299333,911.487015 583.474642,891.227231 595.432897,878.272036 C702.232493,762.640034 857.689831,762.777891 863.875135,763.053533 Z" id="形状结合" fill="#FF0000"></path>
    </g>
</svg>